<svg width="26" height="26" viewBox="0 0 26 26" fill="none" xmlns="http://www.w3.org/2000/svg">
<path fill-rule="evenodd" clip-rule="evenodd" d="M2.45358 12.9998C2.45358 7.70776 6.57891 2.45309 13.0002 2.45309C18.1858 2.45309 20.7506 6.29096 21.8426 8.33309H18.6002C18.3527 8.33309 18.1153 8.43143 17.9403 8.60646C17.7652 8.78149 17.6669 9.01889 17.6669 9.26643C17.6669 9.51396 17.7652 9.75136 17.9403 9.92639C18.1153 10.1014 18.3527 10.1998 18.6002 10.1998H24.2002C24.4478 10.1998 24.6852 10.1014 24.8602 9.92639C25.0352 9.75136 25.1336 9.51396 25.1336 9.26643V3.66643C25.1336 3.41889 25.0352 3.18149 24.8602 3.00646C24.6852 2.83143 24.4478 2.73309 24.2002 2.73309C23.9527 2.73309 23.7153 2.83143 23.5403 3.00646C23.3652 3.18149 23.2669 3.41889 23.2669 3.66643V7.05069C21.9528 4.73229 18.9101 0.586426 13.0002 0.586426C5.41598 0.586426 0.586914 6.81176 0.586914 12.9998C0.586914 19.1878 5.41598 25.4131 13.0002 25.4131C16.629 25.4131 19.6493 23.9758 21.7997 21.788C22.9408 20.6242 23.8459 19.2506 24.4653 17.743C24.5119 17.6296 24.5357 17.5081 24.5353 17.3856C24.535 17.263 24.5105 17.1417 24.4632 17.0286C24.416 16.9155 24.347 16.8128 24.26 16.7264C24.1731 16.64 24.07 16.5715 23.9566 16.525C23.8433 16.4784 23.7218 16.4546 23.5993 16.455C23.4767 16.4553 23.3554 16.4798 23.2423 16.527C23.1292 16.5743 23.0265 16.6433 22.9401 16.7302C22.8537 16.8172 22.7852 16.9202 22.7386 17.0336C22.2112 18.3178 21.4404 19.4879 20.4688 20.4795C18.6562 22.3275 16.1082 23.5464 13.0002 23.5464C6.57891 23.5464 2.45358 18.2918 2.45358 12.9998Z" fill="black"/>
</svg>
